<?xml version="1.0" encoding="utf-8" ?>
<svg xmlns="http://www.w3.org/2000/svg" xmlns:xlink="http://www.w3.org/1999/xlink" width="1024" height="1024">
	<path fill="#FEFEFE" d="M0 0L1024 0L1024 1024L0 1024L0 0Z"/>
	<path fill="#EE611E" d="M231.414 390.157Q231.253 399.94 231.976 409.698Q232.699 419.455 234.3 429.108C231.705 430.714 203.878 429.629 198.824 429.606C197.68 417.638 198.424 405.025 198.513 392.982C209.054 393.258 219.689 393.225 230.235 393.092C231.045 392.187 230.899 391.209 231.027 390.027L231.414 390.157Z"/>
	<path fill="#0E3872" d="M708.013 537.163C716.291 546.908 725.85 555.749 734.978 564.701C727.847 573.055 719.564 580.594 711.748 588.303C708.179 591.822 704.204 595.418 701.138 599.38Q688.436 586.367 675.412 573.676C679.899 568.121 685.329 563.029 690.181 557.765C696.345 551.077 702.108 544.075 708.013 537.163Z"/>
	<path fill="#67AF47" d="M787.095 462.508C789.703 462.707 793.799 465.434 796.249 466.585C802.015 469.295 807.951 471.452 814.053 473.279C839.446 480.885 878.52 476.12 899.216 458.77C901.245 457.069 903.258 455.224 904.96 453.19C907.121 450.608 909.382 445.276 912.534 443.905C912.697 443.834 912.876 443.808 913.047 443.759C913.239 439.868 913.949 435.714 914.901 431.933L915.061 431.321C914.58 449.725 906.812 468.072 893.36 480.766Q892.146 481.906 890.878 482.986Q889.609 484.066 888.29 485.083Q886.971 486.101 885.604 487.052Q884.237 488.004 882.825 488.888Q881.413 489.772 879.96 490.586Q878.507 491.401 877.016 492.143Q875.525 492.886 873.999 493.555Q872.474 494.224 870.918 494.819Q869.361 495.413 867.778 495.931Q866.195 496.449 864.589 496.889Q862.982 497.329 861.356 497.691Q859.73 498.053 858.088 498.335Q856.447 498.617 854.793 498.819Q853.14 499.021 851.478 499.142Q849.817 499.263 848.152 499.303Q846.486 499.344 844.821 499.303Q843.168 499.235 841.521 499.086Q839.873 498.938 838.235 498.708Q836.597 498.479 834.972 498.169Q833.347 497.86 831.739 497.471Q830.131 497.083 828.544 496.616Q826.957 496.148 825.395 495.604Q823.833 495.06 822.299 494.439Q820.766 493.819 819.265 493.125Q817.763 492.43 816.298 491.662Q814.832 490.895 813.406 490.056Q811.98 489.218 810.597 488.311Q809.214 487.404 807.877 486.429Q806.54 485.455 805.252 484.417Q803.964 483.379 802.729 482.278Q801.494 481.178 800.314 480.018Q799.134 478.859 798.013 477.643C793.804 473.131 789.908 468.017 787.095 462.508Z"/>
	<path fill="#0E3872" d="M496.486 757.351Q509.267 757.285 522.048 757.384L522.058 876.534L496.333 876.523C496.065 863.011 496.402 849.471 496.427 835.955L496.486 757.351Z"/>
	<path fill="#5ABDEF" d="M171.03 757.235Q178.704 757.073 186.378 757.202L186.468 814.927C186.483 826.566 187.606 839.447 185.363 850.861C183.625 859.711 178.778 867.947 171.157 872.962C161.8 879.12 149.457 879.389 138.822 877.211C133.698 876.122 129.488 874.114 125.069 871.357C128.417 864.698 132.159 858.226 135.795 851.72C139.414 853.551 143.177 855.33 147.29 855.593C150.428 855.794 153.401 854.818 155.703 852.652C157.804 850.675 158.139 847.521 158.472 844.784C159.548 835.946 158.667 826.036 158.652 817.099L158.561 757.481L171.03 757.235Z"/>
	<path fill="#0E3872" d="M419.296 757.489L484.285 757.532C483.971 765.16 484.189 772.874 484.18 780.513L445.484 780.518L445.496 808.251L481.453 808.228L481.372 830.431L474.258 830.465L445.113 830.527L445.142 876.552L419.032 876.61L419.296 757.489Z"/>
	<path fill="#CB1D36" d="M756.131 237.363C759.931 239.772 761.803 247.967 764.645 251.782Q767.194 255.211 770.227 258.22Q773.26 261.229 776.708 263.751C786.115 270.611 804.819 278.914 816.736 277.194L817.21 275.647C821.082 274.154 831.544 274.603 836.241 274.313C837.092 275.604 836.892 276.558 836.933 278.084C855.007 277.695 874.464 268.956 886.779 255.763C888.903 253.488 895.733 242.86 896.395 242.422C896.864 242.111 897.481 242.129 898.024 241.982Q898.503 248.046 898.003 254.108Q897.853 255.877 897.617 257.637Q897.381 259.397 897.059 261.143Q896.736 262.89 896.329 264.618Q895.922 266.346 895.431 268.053Q894.94 269.759 894.366 271.439Q893.792 273.12 893.136 274.77Q892.48 276.42 891.745 278.036Q891.009 279.652 890.195 281.231Q889.382 282.809 888.492 284.345Q887.602 285.882 886.637 287.373Q885.673 288.864 884.637 290.306Q883.602 291.749 882.496 293.138Q881.391 294.528 880.219 295.862Q879.047 297.196 877.812 298.471Q876.576 299.747 875.279 300.96Q873.982 302.173 872.628 303.321Q871.28 304.453 869.877 305.518Q868.474 306.582 867.021 307.575Q865.567 308.568 864.065 309.487Q862.564 310.407 861.019 311.251Q859.473 312.095 857.888 312.861Q856.303 313.627 854.681 314.313Q853.06 314.999 851.406 315.604Q849.753 316.209 848.071 316.731Q846.39 317.253 844.684 317.69Q842.979 318.128 841.254 318.481Q839.529 318.833 837.788 319.099Q836.048 319.365 834.296 319.545Q832.545 319.724 830.786 319.816Q829.028 319.909 827.268 319.913Q825.507 319.918 823.748 319.835Q821.989 319.752 820.237 319.582Q818.477 319.396 816.728 319.125Q814.978 318.854 813.245 318.497Q811.511 318.141 809.796 317.7Q808.082 317.259 806.391 316.735Q804.701 316.211 803.037 315.605Q801.374 314.999 799.743 314.313Q798.111 313.626 796.515 312.861Q794.919 312.095 793.362 311.253Q791.806 310.41 790.292 309.493Q788.778 308.575 787.311 307.585Q785.844 306.594 784.427 305.533Q783.01 304.472 781.647 303.343Q780.284 302.214 778.977 301.02Q777.671 299.826 776.424 298.569Q775.177 297.312 773.994 295.996Q772.81 294.68 771.692 293.308C758.833 277.418 753.915 257.498 756.131 237.363Z"/>
	<path fill="#FEFEFE" d="M816.736 277.194L817.21 275.647C821.082 274.154 831.544 274.603 836.241 274.313C837.092 275.604 836.892 276.558 836.933 278.084L836.897 291.253L827.279 301.317C823.839 298.106 820.504 294.772 817.131 291.491C817.098 286.747 817.252 281.913 816.736 277.194Z"/>
	<path fill="#0E3872" d="M732.986 756.534L799.497 756.792L799.506 778.482L760.503 778.447L760.502 803.901L794.387 803.85L794.361 826.808C783.013 826.415 771.616 826.576 760.26 826.534L760.125 842.208L760.11 852.47L799.359 852.491Q799.225 864.51 799.251 876.53L732.968 876.593L732.986 756.534Z"/>
	<path fill="#0E3872" d="M697.708 603.479C697.869 603.505 698.03 603.533 698.192 603.557C706.737 604.83 712.338 603.419 720.951 607.13Q724.135 608.494 727.102 610.281Q730.07 612.068 732.765 614.244C745.267 624.313 756.596 637.258 767.772 648.808C776.848 658.188 786.367 667.115 795.523 676.414C804.69 685.724 814.108 697.627 826.686 702.303C836.584 705.982 848.848 704.454 857.922 699.208C860.75 697.573 863.485 695.031 866.348 693.637C867.399 693.125 867.746 693.149 868.822 693.45C867.792 697.597 866.055 701.681 863.891 705.362Q863.289 706.38 862.636 707.366Q861.984 708.352 861.283 709.305Q860.582 710.257 859.835 711.173Q859.087 712.09 858.295 712.967Q857.503 713.845 856.668 714.682Q855.833 715.52 854.957 716.314Q854.081 717.109 853.166 717.858Q852.252 718.608 851.301 719.311Q850.351 720.014 849.366 720.669Q848.381 721.324 847.365 721.929Q846.349 722.534 845.304 723.087Q844.259 723.64 843.188 724.141Q842.116 724.641 841.021 725.088Q839.926 725.534 838.81 725.925Q837.694 726.316 836.56 726.651Q835.426 726.986 834.277 727.264C822.507 730.154 808.285 728.278 797.9 721.903C787.92 715.777 774.121 699.334 765.208 690.503Q745.491 671.006 726.027 651.256C716.879 642.133 707.1 633.108 698.703 623.284C696.737 620.984 695.11 618.807 694.491 615.78C693.529 611.074 695.218 607.324 697.708 603.479Z"/>
	<path fill="#0E3872" d="M827.72 756.763C839.575 756.537 852.234 755.521 863.991 757.097C870.991 758.036 878.238 760.197 882.554 766.172C889.544 775.849 889.628 797.334 887.767 808.839C886.31 817.843 882.372 823.138 875.035 828.38C879.96 844.731 886.883 860.575 892.401 876.753C883.227 876.579 874.043 876.614 864.869 876.564L860.707 863.629L850.661 834.499L840.219 834.51Q840.141 855.544 840.338 876.576L813.51 876.58L813.284 756.867L827.72 756.763Z"/>
	<path fill="#FEFEFE" d="M840.48 776.026C845.788 775.958 851.005 775.774 856.21 776.964C858.19 778.74 859.327 780.081 859.835 782.761C860.907 788.42 860.959 801.836 859.762 807.431C859.501 808.652 858.798 809.701 858.113 810.725C853.034 814.36 846.417 813.261 840.48 813.109L840.48 776.026Z"/>
	<path fill="#0E3872" d="M599.503 757.091L623.528 757.107L623.416 876.517L615.75 876.514L593.412 876.509C589.222 864.558 584.356 852.826 579.807 841.007Q571.603 819.382 563.661 797.66C562.914 823.851 563.786 850.325 563.879 876.539L538.579 876.571L538.53 796.523C538.521 784.124 538.133 771.608 538.436 759.224C538.454 758.513 538.655 758.067 539.037 757.481L540.419 757.25L571.86 757.136C575.589 768.802 580.889 780.224 585.137 791.74C589.736 804.208 593.818 818.715 599.574 830.529L599.503 757.091Z"/>
	<path fill="#5ABDEF" d="M236.139 756.191C245.978 754.727 257.993 757.553 266.157 763.204C273.916 768.574 278.205 776.628 279.83 785.801C281.44 794.886 281.603 839.095 279.931 848.309C278.943 853.753 276.902 859.14 273.665 863.651C267.013 872.921 257.104 876.695 246.227 878.452C234.511 879.059 223.158 878.116 213.646 870.571C205.81 864.355 201.707 855.252 200.68 845.426C199.469 833.831 199.196 794.567 201.406 784.249C202.607 778.643 204.845 773.233 208.488 768.764C215.509 760.153 225.515 757.35 236.139 756.191Z"/>
	<path fill="#FEFEFE" d="M239.468 780.169C242.265 780.185 245.031 780.519 247.526 781.871C249.845 783.128 251.768 785.192 252.47 787.771C254.308 794.518 254.112 836.361 253.169 844.345C252.934 846.332 252.589 847.802 251.56 849.533C249.418 853.139 246.69 854.112 242.764 855.054C239.163 855.143 235.286 855.186 232.248 852.967C229.3 850.815 228.492 848.317 227.975 844.841C226.815 837.04 227.546 828.434 227.547 820.534C227.548 810.882 226.708 800.398 228.127 790.848C228.481 788.468 229.049 786.345 230.559 784.428C232.847 781.521 235.965 780.693 239.468 780.169Z"/>
	<path fill="#5ABDEF" d="M312.224 757.244C326.15 757.126 342.893 755.539 356.113 760.214C362.719 762.551 367.585 766.836 370.533 773.238C374.154 781.1 374.586 791.438 371.409 799.518C368.367 807.254 363.184 809.449 356.019 812.438C360.361 814.251 364.289 815.94 367.735 819.282C373.447 824.822 375.715 833.161 375.912 840.911C376.165 850.857 373.664 859.752 366.757 867.085C354.227 878.685 338.076 877.649 322.161 877.524Q309.033 877.38 295.905 877.444L295.705 757.331L312.224 757.244Z"/>
	<path fill="#FEFEFE" d="M322.943 780.033C328.883 779.998 337.896 778.997 342.873 782.725C345.319 784.557 346.388 787.265 346.679 790.237C347.125 794.776 346.161 798.569 343.36 802.149C337.965 806.443 329.419 805.269 322.943 805.07L322.943 780.033Z"/>
	<path fill="#FEFEFE" d="M323.015 824.617C329.125 824.652 337.779 823.738 343.1 827.155C346.085 829.072 347.654 832.104 348.23 835.535C349.229 841.496 348.418 846.623 344.786 851.543C338.737 856.09 330.166 855.025 323.011 854.974L323.015 824.617Z"/>
	<path fill="#0E3872" d="M641.465 756.734C651.9 756.924 662.356 756.637 672.792 756.532C684.335 756.416 700.661 756.599 709.37 765.522C721.313 777.756 718.579 804.107 718.643 820.198C718.706 836.076 721.685 856.474 709.557 868.698C697.59 877.879 680.606 876.557 666.367 876.545L640.507 876.513L640.53 793.269L640.535 769.265C640.533 765.325 640.143 761.208 640.685 757.312L641.465 756.734Z"/>
	<path fill="#FEFEFE" d="M667.525 777.58C673.353 777.524 682.454 776.404 687.441 779.777C689.748 781.337 690.553 784.785 691.025 787.36C692.279 794.202 692.219 836.506 690.975 843.526C690.531 846.03 689.643 847.845 688.195 849.911C682.513 854.262 674.262 853.107 667.486 853.03L667.525 777.58Z"/>
	<path fill="#E24457" d="M756.131 237.363C758.818 219.1 767.936 202.444 782.869 191.382C799.063 179.385 817.775 174.576 837.741 177.551C855.949 180.263 873.102 189.889 884.098 204.753C891.87 215.258 897.635 228.796 898.024 241.982C897.481 242.129 896.864 242.111 896.395 242.422C895.733 242.86 888.903 253.488 886.779 255.763C874.464 268.956 855.007 277.695 836.933 278.084C836.892 276.558 837.092 275.604 836.241 274.313C831.544 274.603 821.082 274.154 817.21 275.647L816.736 277.194C804.819 278.914 786.115 270.611 776.708 263.751Q773.26 261.229 770.227 258.22Q767.194 255.211 764.645 251.782C761.803 247.967 759.931 239.772 756.131 237.363Z"/>
	<path fill="#CB1D36" d="M857.443 240.858C858.555 241.049 858.491 240.994 859.15 241.907C858.929 249.216 853.529 258.971 848.387 263.892C841.912 270.088 833.294 272.764 824.429 272.458C816.387 272.18 808.225 269.152 802.69 263.143C799.846 260.055 795.213 253.623 795.358 249.311C795.383 248.573 795.685 248.506 796.171 248.03C796.391 248.494 796.608 248.96 796.849 249.414C800.885 257.005 807.529 262.897 815.799 265.442Q816.54 265.671 817.291 265.864Q818.042 266.056 818.802 266.211Q819.562 266.366 820.328 266.483Q821.095 266.6 821.866 266.68Q822.637 266.759 823.412 266.8Q824.186 266.841 824.961 266.843Q825.737 266.846 826.511 266.81Q827.286 266.775 828.058 266.701Q828.83 266.627 829.597 266.515Q830.364 266.403 831.125 266.253Q831.886 266.103 832.638 265.916Q833.391 265.729 834.133 265.505Q834.875 265.28 835.606 265.02Q836.336 264.759 837.053 264.463Q837.769 264.166 838.47 263.835Q839.171 263.504 839.855 263.138C849.139 258.174 854.368 250.738 857.443 240.858Z"/>
	<path fill="#F7DBD6" d="M793.819 240.328C814.924 240.328 836.247 239.812 857.324 240.583L857.443 240.858C854.368 250.738 849.139 258.174 839.855 263.138Q839.171 263.504 838.47 263.835Q837.769 264.166 837.053 264.463Q836.336 264.759 835.606 265.02Q834.875 265.28 834.133 265.505Q833.391 265.729 832.638 265.916Q831.886 266.103 831.125 266.253Q830.364 266.403 829.597 266.515Q828.83 266.627 828.058 266.701Q827.286 266.775 826.511 266.81Q825.737 266.846 824.961 266.843Q824.186 266.841 823.412 266.8Q822.637 266.759 821.866 266.68Q821.095 266.6 820.328 266.483Q819.562 266.366 818.802 266.211Q818.042 266.056 817.291 265.864Q816.54 265.671 815.799 265.442C807.529 262.897 800.885 257.005 796.849 249.414C796.608 248.96 796.391 248.494 796.171 248.03C795.247 245.485 794.516 242.941 793.819 240.328Z"/>
	<path fill="#FEFEFE" d="M793.819 240.328C793.011 230.641 794.703 221.42 801.122 213.808Q801.636 213.21 802.178 212.637Q802.72 212.065 803.29 211.52Q803.86 210.974 804.456 210.458Q805.052 209.941 805.672 209.455Q806.293 208.968 806.937 208.513Q807.581 208.057 808.246 207.634Q808.911 207.211 809.597 206.821Q810.282 206.431 810.986 206.075Q811.689 205.719 812.41 205.398Q813.13 205.077 813.865 204.792Q814.601 204.507 815.349 204.258Q816.097 204.01 816.857 203.798Q817.617 203.587 818.386 203.413Q819.155 203.239 819.932 203.103Q820.709 202.967 821.491 202.87Q822.274 202.772 823.06 202.713Q823.842 202.645 824.627 202.616Q825.412 202.586 826.197 202.595Q826.982 202.604 827.766 202.651Q828.55 202.699 829.331 202.784Q830.111 202.87 830.887 202.993Q831.662 203.117 832.431 203.279Q833.199 203.44 833.959 203.639Q834.719 203.838 835.468 204.073Q836.217 204.309 836.953 204.581Q837.69 204.853 838.412 205.161Q839.135 205.469 839.841 205.812Q840.548 206.154 841.237 206.531Q841.926 206.908 842.595 207.318Q843.265 207.728 843.914 208.171Q844.563 208.613 845.189 209.087Q845.815 209.56 846.418 210.064C853.082 215.73 857.184 223.553 857.841 232.291C858.054 235.117 857.738 237.791 857.324 240.583C836.247 239.812 814.924 240.328 793.819 240.328Z"/>
	<path fill="#0E3872" d="M312.561 221.602Q316.269 223.681 319.949 225.809C313.512 232.411 308.158 240.843 303.36 248.711C278.769 289.036 266.007 338.387 266.561 385.489Q266.579 388.478 266.672 391.465Q266.764 394.452 266.93 397.436Q267.097 400.42 267.337 403.399Q267.577 406.378 267.891 409.35Q268.205 412.322 268.593 415.285Q268.981 418.248 269.442 421.201Q269.903 424.154 270.437 427.094Q270.971 430.035 271.578 432.961Q272.185 435.888 272.864 438.798Q273.543 441.708 274.294 444.601Q275.046 447.494 275.868 450.367Q276.691 453.24 277.585 456.092Q278.478 458.944 279.442 461.772Q280.406 464.601 281.44 467.405Q282.474 470.209 283.577 472.987Q284.681 475.764 285.852 478.514Q287.024 481.263 288.263 483.982Q289.503 486.702 290.81 489.39Q292.116 492.078 293.489 494.732Q294.862 497.387 296.3 500.007Q297.738 502.626 299.241 505.21Q300.743 507.793 302.31 510.338Q303.876 512.884 305.505 515.389Q307.134 517.895 308.824 520.359Q310.515 522.824 312.266 525.246Q314.017 527.668 315.828 530.045Q317.639 532.423 319.508 534.755Q321.377 537.087 323.303 539.372Q325.229 541.657 327.212 543.893Q329.194 546.13 331.231 548.316Q333.268 550.503 335.359 552.639Q337.45 554.774 339.593 556.857C387.208 603.135 449.534 623.091 515.223 622.05Q524.988 621.843 534.713 620.944Q544.439 620.046 554.076 618.46Q563.713 616.874 573.214 614.609Q582.715 612.345 592.031 609.412C600.886 606.546 609.961 601.308 619.026 599.609C622.278 599 625.351 601.032 628.557 600.924C632.244 600.8 635.955 598.687 639.51 597.815C640.72 597.518 641.673 597.451 642.76 598.166C643.005 598.327 643.209 598.541 643.434 598.728C604.305 623.756 561.427 638.382 514.897 640.373C447.523 643.256 380.047 616.552 330.62 571.067Q328.359 568.975 326.151 566.827Q323.942 564.68 321.787 562.479Q319.632 560.277 317.532 558.024Q315.432 555.77 313.388 553.466Q311.344 551.161 309.357 548.807Q307.37 546.453 305.442 544.05Q303.514 541.648 301.646 539.199Q299.778 536.749 297.97 534.255Q296.163 531.76 294.417 529.222Q292.672 526.684 290.99 524.104Q289.307 521.523 287.689 518.902Q286.07 516.281 284.517 513.621Q282.964 510.96 281.477 508.263Q279.989 505.565 278.569 502.832Q277.149 500.098 275.796 497.331Q274.443 494.563 273.159 491.763Q271.875 488.963 270.66 486.132Q269.446 483.301 268.301 480.442Q267.156 477.582 266.082 474.694Q265.008 471.807 264.006 468.894Q263.004 465.982 262.073 463.045Q261.143 460.108 260.285 457.15Q259.427 454.191 258.643 451.212Q257.858 448.234 257.147 445.236Q256.436 442.239 255.799 439.225Q255.162 436.211 254.599 433.183Q254.036 430.154 253.549 427.112Q253.061 424.071 252.648 421.018Q252.235 417.966 251.898 414.904Q251.56 411.842 251.298 408.772Q251.036 405.703 250.85 402.628Q250.664 399.553 250.553 396.475C248.518 346.284 261.661 298.786 287.635 255.949C294.892 243.981 303.05 231.905 312.561 221.602Z"/>
	<path fill="#154E8F" d="M734.978 564.701C740.815 558.995 747.623 550.732 756.498 550.793C759.585 550.814 762.794 551.857 765.275 553.699C768.828 556.337 772.03 560.064 775.151 563.219Q783.199 571.413 791.384 579.471L827.747 616.139C837.769 626.197 848.121 636.143 857.781 646.534C867.1 656.558 871.16 668.036 870.586 681.755C870.419 685.74 869.773 689.582 868.822 693.45C867.746 693.149 867.399 693.125 866.348 693.637C863.485 695.031 860.75 697.573 857.922 699.208C848.848 704.454 836.584 705.982 826.686 702.303C814.108 697.627 804.69 685.724 795.523 676.414C786.367 667.115 776.848 658.188 767.772 648.808C756.596 637.258 745.267 624.313 732.765 614.244Q730.07 612.068 727.102 610.281Q724.135 608.494 720.951 607.13C712.338 603.419 706.737 604.83 698.192 603.557C698.03 603.533 697.869 603.505 697.708 603.479L701.138 599.38C704.204 595.418 708.179 591.822 711.748 588.303C719.564 580.594 727.847 573.055 734.978 564.701Z"/>
	<path fill="#9DCB4C" d="M784.197 455.69C780.425 447.913 779.412 438.021 779.479 429.477C779.626 410.838 785.966 393.95 799.4 380.807C812.728 367.768 830.384 361.145 848.995 361.435C868.345 361.737 885.331 369.469 898.707 383.326C907.902 394.74 914.465 409.149 915.238 423.934C915.345 425.973 915.67 428.851 915.238 430.835C915.201 431.003 915.12 431.159 915.061 431.321L914.901 431.933C913.949 435.714 913.239 439.868 913.047 443.759C912.876 443.808 912.697 443.834 912.534 443.905C909.382 445.276 907.121 450.608 904.96 453.19C903.258 455.224 901.245 457.069 899.216 458.77C878.52 476.12 839.446 480.885 814.053 473.279C807.951 471.452 802.015 469.295 796.249 466.585C793.799 465.434 789.703 462.707 787.095 462.508C785.784 460.522 784.697 458.019 784.197 455.69Z"/>
	<path fill="#FEFEFE" d="M845.958 445.536C847.517 445.38 849.101 445.196 850.657 445.454C853.537 445.932 856.399 447.663 857.969 450.151C859.369 452.368 859.714 454.954 858.975 457.467C857.951 460.948 855.43 462.659 852.431 464.384C850.714 464.52 848.805 464.777 847.105 464.447C844.538 463.949 842.037 462.161 840.612 459.99C839.187 457.82 838.67 455.12 839.359 452.599C840.32 449.081 842.895 447.175 845.958 445.536Z"/>
	<path fill="#FEFEFE" d="M843.258 420.583C847.476 420.229 852.077 420.202 856.233 421.034C865.212 422.832 875.288 429.439 880.137 437.237C881.264 439.051 881.962 440.567 881.393 442.761C880.862 444.812 879.385 446.652 877.518 447.655C870.888 451.217 865.416 441.229 861.099 437.909C859.475 436.66 857.704 435.947 855.78 435.295L855.173 435.095C835.438 430.104 834.396 445.325 825.048 447.949C823.53 448.375 821.966 448.179 820.592 447.399C818.681 446.315 816.641 444.321 816.055 442.143C815.462 439.94 816.35 437.785 817.561 435.969C823.119 427.632 833.726 422.52 843.258 420.583Z"/>
	<path fill="#FEFEFE" d="M800.922 428.816C800.808 428.31 800.907 428.573 800.52 427.996C799.943 427.135 799.133 426.136 798.829 425.133C798.407 423.742 798.65 422.491 799.255 421.208C803.523 412.151 820.028 402.645 829.3 399.667C846.816 394.04 864.34 396.859 880.467 405.092C885.552 407.977 897.677 416.548 899.2 422.369C899.735 424.415 899.417 426.412 898.272 428.196C897.217 429.843 895.438 431.175 893.517 431.596C891.656 432.004 889.909 431.526 888.357 430.463C884.838 428.054 882.424 424.004 879.18 421.22C868.925 412.418 854.766 408.607 841.459 410.7Q840.109 410.923 838.776 411.228Q837.442 411.534 836.13 411.92Q834.818 412.307 833.531 412.774Q832.245 413.241 830.991 413.786Q829.736 414.331 828.517 414.952Q827.298 415.573 826.12 416.268Q824.941 416.963 823.808 417.729Q822.674 418.496 821.59 419.33C817.334 422.656 812.717 429.548 807.315 430.591C804.983 431.041 802.909 429.872 800.922 428.816Z"/>
	<path fill="#BED651" d="M784.197 455.69C780.425 447.913 779.412 438.021 779.479 429.477C779.626 410.838 785.966 393.95 799.4 380.807C812.728 367.768 830.384 361.145 848.995 361.435C868.345 361.737 885.331 369.469 898.707 383.326C894.824 391.535 885.981 397.727 880.467 405.092C864.34 396.859 846.816 394.04 829.3 399.667C820.028 402.645 803.523 412.151 799.255 421.208C798.65 422.491 798.407 423.742 798.829 425.133C799.133 426.136 799.943 427.135 800.52 427.996C800.907 428.573 800.808 428.31 800.922 428.816C800.065 428.718 799.866 428.91 799.306 428.149C798.033 426.421 797.59 424.044 798.066 421.959C799.223 416.893 809.556 410.205 809.725 408.611C809.007 407.641 808.912 407.701 809.057 406.521C809.651 406.152 810.234 405.857 810.844 405.529C811.923 404.949 812.725 403.968 813.555 403.085L813.651 402.525C811.303 402.366 809.73 402.075 807.508 401.491C806.851 401.318 806.07 401.363 805.389 401.376C803.835 400.409 802.631 399.686 802.053 397.818C801.114 394.782 804.181 390.224 803.355 388.251L802.901 388.339L803.122 389.28L802.565 388.629L800.56 390.88L799.91 390.8C799.932 386.938 805.483 380.81 808.22 378.172C809.939 376.515 811.78 374.966 813.598 373.417C812.386 373.737 811.074 374.002 809.894 374.404C800.038 377.764 788.583 395.008 784.843 404.435C781.026 414.06 779.021 431.631 781.091 441.79C781.963 446.064 784.249 451.396 784.197 455.69Z"/>
	<path fill="#5ABDEF" d="M312.561 221.602C354.44 172.546 418.521 139.46 482.916 134.453Q486.035 134.204 489.159 134.032Q492.283 133.86 495.41 133.765Q498.538 133.67 501.666 133.651Q504.795 133.633 507.923 133.692Q511.051 133.751 514.177 133.886Q517.303 134.022 520.425 134.235Q523.546 134.447 526.661 134.737Q529.777 135.026 532.884 135.392Q535.992 135.758 539.089 136.2Q542.186 136.642 545.272 137.16Q548.357 137.679 551.429 138.273Q554.501 138.867 557.557 139.536Q560.614 140.205 563.653 140.95Q566.692 141.694 569.711 142.513Q572.731 143.332 575.73 144.225Q578.728 145.118 581.704 146.084Q584.68 147.051 587.631 148.09Q590.582 149.13 593.506 150.241Q596.431 151.353 599.327 152.536Q602.224 153.72 605.09 154.974Q607.957 156.228 610.791 157.552Q613.626 158.877 616.427 160.27Q619.229 161.664 621.995 163.126Q624.761 164.588 627.49 166.118Q630.219 167.648 632.91 169.244Q635.601 170.841 638.252 172.503Q640.902 174.165 643.511 175.892Q646.12 177.619 648.686 179.409Q651.252 181.2 653.773 183.053Q656.294 184.906 658.768 186.821Q661.243 188.735 663.67 190.71Q666.097 192.685 668.474 194.719Q670.813 196.706 673.102 198.749Q675.391 200.793 677.629 202.892Q679.867 204.992 682.052 207.145Q684.238 209.299 686.37 211.506Q688.503 213.713 690.58 215.971Q692.657 218.23 694.678 220.539Q696.699 222.847 698.663 225.205Q700.627 227.563 702.532 229.969Q704.437 232.374 706.283 234.826Q708.128 237.277 709.913 239.773Q711.698 242.27 713.42 244.809Q715.143 247.348 716.803 249.929Q718.463 252.51 720.059 255.131Q721.655 257.752 723.186 260.411Q724.717 263.071 726.182 265.767Q727.647 268.463 729.045 271.194Q730.443 273.926 731.774 276.691Q733.105 279.456 734.368 282.253Q735.63 285.049 736.823 287.876Q738.017 290.703 739.14 293.559Q740.263 296.414 741.316 299.297Q742.369 302.179 743.351 305.086Q744.333 307.993 745.243 310.924Q746.153 313.854 746.99 316.806Q747.828 319.758 748.593 322.73Q749.358 325.702 750.049 328.691Q750.741 331.681 751.359 334.687Q751.976 337.693 752.52 340.712Q753.064 343.733 753.533 346.765Q754.003 349.797 754.397 352.84Q754.792 355.884 755.112 358.935Q755.431 361.987 755.676 365.046C760.382 428.171 747.969 470.931 716.225 525.026C705.998 514.845 694.886 505.321 684.273 495.526C688.764 486.379 693.638 477.473 697.669 468.098Q698.829 465.408 699.915 462.688Q701.002 459.968 702.012 457.218Q703.023 454.469 703.958 451.693Q704.892 448.917 705.75 446.116Q706.608 443.315 707.389 440.492Q708.169 437.669 708.871 434.825Q709.574 431.981 710.198 429.119Q710.822 426.257 711.367 423.379Q711.911 420.501 712.377 417.609Q712.842 414.717 713.228 411.813Q713.614 408.91 713.919 405.996Q714.225 403.083 714.45 400.163Q714.676 397.242 714.82 394.317Q714.965 391.391 715.03 388.462Q715.094 385.534 715.077 382.605Q715.061 379.676 714.964 376.748Q714.867 374.168 714.706 371.591Q714.545 369.014 714.321 366.442Q714.097 363.87 713.81 361.304Q713.523 358.738 713.172 356.18Q712.822 353.622 712.409 351.073Q711.995 348.524 711.519 345.987Q711.044 343.449 710.505 340.924Q709.967 338.398 709.367 335.887Q708.767 333.376 708.105 330.88Q707.443 328.385 706.72 325.906Q705.997 323.427 705.213 320.967Q704.43 318.507 703.585 316.067Q702.741 313.627 701.837 311.208Q700.933 308.79 699.97 306.394Q699.007 303.999 697.985 301.628Q696.963 299.256 695.883 296.911Q694.803 294.566 693.666 292.248Q692.529 289.93 691.335 287.641Q690.141 285.351 688.891 283.092Q687.641 280.833 686.336 278.605Q685.03 276.377 683.671 274.183Q682.311 271.988 680.898 269.827Q679.484 267.666 678.018 265.541Q676.552 263.415 675.034 261.327Q673.516 259.238 671.948 257.187Q670.379 255.137 668.76 253.125Q667.141 251.114 665.473 249.143Q663.805 247.172 662.089 245.243Q660.374 243.313 658.611 241.427Q656.848 239.54 655.039 237.698Q653.23 235.855 651.377 234.058Q649.523 232.26 647.626 230.509Q645.745 228.787 643.824 227.111Q641.903 225.435 639.941 223.806Q637.98 222.177 635.98 220.595Q633.98 219.014 631.942 217.481Q629.905 215.948 627.831 214.465Q625.757 212.982 623.647 211.55Q621.538 210.117 619.395 208.736Q617.252 207.354 615.076 206.025Q612.9 204.696 610.693 203.42Q608.485 202.144 606.248 200.921Q604.01 199.698 601.744 198.53Q599.478 197.362 597.184 196.248Q594.89 195.135 592.57 194.077Q590.25 193.02 587.905 192.018Q585.56 191.017 583.192 190.073Q580.824 189.128 578.433 188.241Q576.043 187.354 573.632 186.525Q571.22 185.696 568.79 184.925Q566.36 184.154 563.911 183.443Q561.463 182.731 558.998 182.078Q556.533 181.426 554.053 180.833Q551.574 180.24 549.08 179.707Q546.587 179.174 544.081 178.702Q541.576 178.229 539.059 177.817Q536.543 177.405 534.018 177.054Q531.492 176.703 528.959 176.413Q526.426 176.123 523.887 175.894Q521.347 175.665 518.803 175.498Q516.259 175.33 513.711 175.224Q511.164 175.118 508.614 175.073Q506.065 175.029 503.515 175.046Q500.966 175.063 498.417 175.141Q496.126 175.204 493.836 175.318Q491.547 175.431 489.26 175.593Q486.974 175.756 484.691 175.968Q482.409 176.18 480.131 176.441Q477.854 176.703 475.583 177.014Q473.312 177.324 471.048 177.684Q468.784 178.044 466.529 178.453Q464.273 178.861 462.027 179.319Q459.781 179.776 457.545 180.282Q455.309 180.788 453.085 181.342Q450.861 181.897 448.649 182.499Q446.437 183.101 444.239 183.751Q442.041 184.401 439.857 185.099Q437.674 185.796 435.506 186.541Q433.338 187.286 431.187 188.077Q429.035 188.868 426.901 189.706Q424.768 190.544 422.653 191.428Q420.538 192.312 418.442 193.241Q416.347 194.17 414.272 195.145Q412.197 196.119 410.144 197.138Q408.091 198.158 406.06 199.221Q404.029 200.284 402.022 201.392Q400.015 202.499 398.032 203.649Q396.049 204.799 394.092 205.992Q392.135 207.185 390.204 208.421Q388.273 209.656 386.369 210.932Q384.465 212.209 382.589 213.526Q380.713 214.844 378.866 216.202Q377.02 217.56 375.203 218.957Q373.386 220.355 371.599 221.791Q369.813 223.228 368.058 224.703Q366.303 226.177 364.581 227.69C357.772 233.682 351.615 240.311 345.44 246.941C339.458 238.269 328.527 231.74 319.949 225.809Q316.269 223.681 312.561 221.602Z"/>
	<path fill="#F87D36" d="M320.868 637.324C313.773 639.747 305.458 640.782 298.002 641.35C287.23 642.17 276.13 641.637 265.314 641.612C252.34 641.582 239.148 642.024 226.22 640.933C191.824 638.032 160.102 619.561 138.147 593.323Q135.609 590.245 133.261 587.019Q130.913 583.794 128.764 580.433Q126.615 577.071 124.672 573.587Q122.729 570.102 121 566.506Q119.272 562.911 117.763 559.218Q116.254 555.525 114.97 551.747Q113.686 547.97 112.633 544.122Q111.58 540.274 110.76 536.369C107.25 519.978 108.114 503.291 108.185 486.644L108.317 439.303L108.292 402.723C108.282 394.162 108.054 385.529 108.857 376.998C111.971 343.892 129.765 313.285 155.235 292.293C187.251 265.908 223.785 258.55 264.16 262.305C248.342 293.018 237.616 321.669 233.454 356.134C232.23 367.589 231.494 378.626 231.414 390.157L231.027 390.027C230.899 391.209 231.045 392.187 230.235 393.092C219.689 393.225 209.054 393.258 198.513 392.982C198.424 405.025 197.68 417.638 198.824 429.606C203.878 429.629 231.705 430.714 234.3 429.108C236.19 440.863 238.782 452.124 241.836 463.617C242.137 464.776 242.402 465.958 242.774 467.096C246.907 479.54 251.128 491.639 256.671 503.554Q262.11 514.615 268.218 525.32C270.824 529.828 273.935 534.273 276.237 538.924L278.328 541.951C296.571 566.843 316.746 587.23 342.026 605.038C348.064 609.292 354.302 613.978 360.928 617.275C348.504 625.901 335.448 633.032 320.868 637.324Z"/>
	<path fill="#EE4415" d="M232.384 542.474C218.049 542.909 203.575 542.455 189.222 542.523C179.549 542.569 168.838 543.531 159.251 542.404C157.091 542.15 155.388 541.65 153.518 540.526C149.599 538.17 145.904 533.983 144.904 529.429C144.489 527.541 144.377 526.102 145.39 524.421C146.817 529.552 148.877 534.44 153.839 537.083C156.033 538.252 158.676 538.67 161.128 538.867C169.001 539.497 177.298 538.983 185.203 538.979L231.248 539.032L276.237 538.924L278.328 541.951C271.465 543.588 262.658 542.488 255.557 542.414Q243.97 542.34 232.384 542.474Z"/>
	<path fill="#F7DBD6" d="M145.39 524.421C145.463 519.455 146.248 515.337 149.159 511.129C151.648 507.53 155.506 504.759 159.831 503.916Q187.266 504.228 214.702 504.008C219.197 515.904 224.327 528.321 231.248 539.032L185.203 538.979C177.298 538.983 169.001 539.497 161.128 538.867C158.676 538.67 156.033 538.252 153.839 537.083C148.877 534.44 146.817 529.552 145.39 524.421Z"/>
	<path fill="#F7DBD6" d="M173.244 356.447C179.807 355.262 187.454 355.989 194.158 356.004L233.454 356.134C232.23 367.589 231.494 378.626 231.414 390.157L231.027 390.027C230.899 391.209 231.045 392.187 230.235 393.092C219.689 393.225 209.054 393.258 198.513 392.982C189.702 392.761 175.422 394.548 167.442 391.662C163.291 390.161 160.299 387.324 158.482 383.321C157.453 381.053 156.83 379.425 157.72 377.033Q157.545 375.395 157.463 373.75C157.264 369.145 159.152 364.536 162.33 361.228C165.087 358.358 169.268 356.486 173.244 356.447Z"/>
	<path fill="#EE4415" d="M198.513 392.982C189.702 392.761 175.422 394.548 167.442 391.662C163.291 390.161 160.299 387.324 158.482 383.321C157.453 381.053 156.83 379.425 157.72 377.033C159.375 381.762 161.894 385.787 166.56 388.078C168.416 388.99 170.315 389.511 172.382 389.548C178.085 390.339 184.185 389.969 189.94 389.94L217.594 389.786C222 389.764 226.664 389.455 231.027 390.027C230.899 391.209 231.045 392.187 230.235 393.092C219.689 393.225 209.054 393.258 198.513 392.982Z"/>
	<path fill="#FEFEFE" d="M157.72 377.033Q157.545 375.395 157.463 373.75C157.264 369.145 159.152 364.536 162.33 361.228C165.087 358.358 169.268 356.486 173.244 356.447C183.142 357.203 193.339 356.671 203.28 356.656C201.398 367.486 200.121 378.38 198.895 389.3C190.206 389.29 181.007 388.665 172.382 389.548C170.315 389.511 168.416 388.99 166.56 388.078C161.894 385.787 159.375 381.762 157.72 377.033Z"/>
	<path fill="#F8C8B8" d="M204.778 467.058L242.774 467.096C246.907 479.54 251.128 491.639 256.671 503.554Q262.11 514.615 268.218 525.32C270.824 529.828 273.935 534.273 276.237 538.924L231.248 539.032C224.327 528.321 219.197 515.904 214.702 504.008Q187.266 504.228 159.831 503.916C165.428 502.683 172.728 503.482 178.494 503.502L213.308 503.523C213.52 497.218 206.431 476.167 204.778 467.058Z"/>
	<path fill="#EE611E" d="M204.778 467.058L242.774 467.096C246.907 479.54 251.128 491.639 256.671 503.554Q234.99 503.305 213.308 503.523C213.52 497.218 206.431 476.167 204.778 467.058Z"/>
	<path fill="#F7DBD6" d="M234.3 429.108C236.19 440.863 238.782 452.124 241.836 463.617C242.137 464.776 242.402 465.958 242.774 467.096L204.778 467.058C190.592 467.019 176.148 467.586 161.996 467.027C156.503 466.81 151.866 465.073 148.153 460.916C145.27 457.687 144.155 451.777 144.531 447.562C144.616 446.61 144.452 446.641 145.216 446.013C146.543 441.693 147.81 437.393 151.188 434.181C153.635 431.855 156.917 430.6 160.18 429.955C164.822 429.037 169.943 429.494 174.666 429.511L198.824 429.606C203.878 429.629 231.705 430.714 234.3 429.108Z"/>
	<path fill="#F8C8B8" d="M234.3 429.108C236.19 440.863 238.782 452.124 241.836 463.617C242.137 464.776 242.402 465.958 242.774 467.096L204.778 467.058C190.592 467.019 176.148 467.586 161.996 467.027C156.503 466.81 151.866 465.073 148.153 460.916C145.27 457.687 144.155 451.777 144.531 447.562C144.616 446.61 144.452 446.641 145.216 446.013C146.078 451.654 147.568 457.02 152.442 460.589C155.295 462.678 158.871 463.575 162.361 463.564C167.131 462.964 172.257 463.307 177.069 463.314L202.776 463.373C201.227 452.093 199.716 440.961 198.824 429.606C203.878 429.629 231.705 430.714 234.3 429.108Z"/>
	<path fill="#EE4415" d="M145.216 446.013C146.078 451.654 147.568 457.02 152.442 460.589C155.295 462.678 158.871 463.575 162.361 463.564C170.518 464.496 179.309 463.928 187.542 463.934Q214.69 463.917 241.836 463.617C242.137 464.776 242.402 465.958 242.774 467.096L204.778 467.058C190.592 467.019 176.148 467.586 161.996 467.027C156.503 466.81 151.866 465.073 148.153 460.916C145.27 457.687 144.155 451.777 144.531 447.562C144.616 446.61 144.452 446.641 145.216 446.013Z"/>
	<path fill="#EE611E" d="M278.328 541.951C296.571 566.843 316.746 587.23 342.026 605.038C348.064 609.292 354.302 613.978 360.928 617.275C348.504 625.901 335.448 633.032 320.868 637.324C320.799 637.161 320.732 636.997 320.66 636.834C320.562 636.615 320.456 636.4 320.359 636.18C319.99 635.35 319.698 634.928 319.016 634.313C315.085 630.773 310.383 627.799 306.131 624.643Q297.759 618.431 290.001 611.466C272.112 595.6 260.034 583.026 246.046 563.725C241.125 556.935 236.201 549.956 232.384 542.474Q243.97 542.34 255.557 542.414C262.658 542.488 271.465 543.588 278.328 541.951Z"/>
	<path fill="#154E8F" d="M345.44 246.941C351.615 240.311 357.772 233.682 364.581 227.69Q366.303 226.177 368.058 224.703Q369.813 223.228 371.599 221.791Q373.386 220.355 375.203 218.957Q377.02 217.56 378.866 216.202Q380.713 214.844 382.589 213.526Q384.465 212.209 386.369 210.932Q388.273 209.656 390.204 208.421Q392.135 207.185 394.092 205.992Q396.049 204.799 398.032 203.649Q400.015 202.499 402.022 201.392Q404.029 200.284 406.06 199.221Q408.091 198.158 410.144 197.138Q412.197 196.119 414.272 195.145Q416.347 194.17 418.442 193.241Q420.538 192.311 422.653 191.428Q424.768 190.544 426.901 189.706Q429.035 188.868 431.187 188.077Q433.338 187.286 435.506 186.541Q437.674 185.796 439.857 185.099Q442.041 184.401 444.239 183.751Q446.437 183.101 448.649 182.499Q450.861 181.897 453.085 181.342Q455.309 180.788 457.545 180.282Q459.781 179.776 462.027 179.319Q464.273 178.861 466.529 178.453Q468.784 178.044 471.048 177.684Q473.312 177.324 475.583 177.014Q477.854 176.703 480.131 176.441Q482.409 176.18 484.691 175.968Q486.974 175.756 489.26 175.593Q491.547 175.431 493.836 175.318Q496.126 175.204 498.417 175.141Q500.966 175.063 503.515 175.046Q506.065 175.029 508.614 175.073Q511.164 175.118 513.711 175.224Q516.259 175.33 518.803 175.498Q521.347 175.665 523.887 175.894Q526.426 176.123 528.959 176.413Q531.492 176.703 534.018 177.054Q536.543 177.405 539.059 177.817Q541.576 178.229 544.081 178.702Q546.587 179.174 549.08 179.707Q551.574 180.24 554.053 180.833Q556.533 181.426 558.998 182.078Q561.463 182.731 563.911 183.443Q566.36 184.154 568.79 184.925Q571.22 185.696 573.632 186.525Q576.043 187.354 578.433 188.241Q580.824 189.128 583.192 190.073Q585.56 191.017 587.905 192.018Q590.25 193.02 592.57 194.077Q594.89 195.135 597.184 196.248Q599.478 197.362 601.744 198.53Q604.01 199.698 606.248 200.921Q608.485 202.144 610.693 203.42Q612.9 204.696 615.076 206.025Q617.252 207.354 619.395 208.736Q621.538 210.117 623.647 211.55Q625.757 212.982 627.831 214.465Q629.905 215.948 631.942 217.481Q633.98 219.014 635.98 220.595Q637.98 222.177 639.941 223.806Q641.903 225.435 643.824 227.111Q645.745 228.787 647.626 230.509Q649.523 232.26 651.377 234.058Q653.23 235.855 655.039 237.698Q656.848 239.54 658.611 241.427Q660.374 243.313 662.089 245.243Q663.805 247.172 665.473 249.143Q667.141 251.114 668.76 253.125Q670.379 255.137 671.948 257.187Q673.516 259.238 675.034 261.327Q676.552 263.415 678.018 265.541Q679.484 267.666 680.898 269.827Q682.311 271.988 683.671 274.183Q685.03 276.377 686.336 278.605Q687.641 280.833 688.891 283.092Q690.141 285.351 691.335 287.641Q692.529 289.93 693.666 292.248Q694.803 294.566 695.883 296.911Q696.963 299.256 697.985 301.628Q699.007 303.999 699.97 306.394Q700.933 308.79 701.837 311.208Q702.741 313.627 703.585 316.067Q704.43 318.507 705.213 320.967Q705.997 323.427 706.72 325.906Q707.443 328.385 708.105 330.88Q708.767 333.376 709.367 335.887Q709.967 338.398 710.505 340.924Q711.044 343.449 711.519 345.987Q711.995 348.524 712.409 351.073Q712.822 353.622 713.172 356.18Q713.523 358.738 713.81 361.304Q714.097 363.87 714.321 366.442Q714.545 369.014 714.706 371.591Q714.867 374.168 714.964 376.748Q715.061 379.676 715.077 382.605Q715.094 385.534 715.03 388.462Q714.965 391.391 714.82 394.317Q714.676 397.242 714.45 400.163Q714.225 403.083 713.919 405.996Q713.614 408.91 713.228 411.813Q712.842 414.717 712.377 417.609Q711.911 420.501 711.367 423.379Q710.822 426.257 710.198 429.119Q709.574 431.981 708.871 434.825Q708.169 437.669 707.388 440.492Q706.608 443.315 705.75 446.116Q704.892 448.917 703.958 451.693Q703.023 454.469 702.012 457.218Q701.002 459.968 699.916 462.688Q698.829 465.408 697.669 468.098C693.638 477.473 688.764 486.379 684.273 495.526C694.886 505.321 705.998 514.845 716.225 525.026C713.657 529.19 710.829 533.165 708.013 537.163C702.108 544.075 696.345 551.077 690.181 557.765C685.329 563.029 679.899 568.121 675.412 573.676C665.093 582.382 654.638 591.181 643.434 598.728C643.209 598.541 643.005 598.327 642.76 598.166C641.673 597.451 640.72 597.518 639.51 597.815C635.955 598.687 632.244 600.8 628.557 600.924C625.351 601.032 622.278 599 619.026 599.609C609.961 601.308 600.886 606.546 592.031 609.412Q582.715 612.345 573.214 614.609Q563.713 616.874 554.076 618.46Q544.439 620.046 534.713 620.944Q524.988 621.843 515.223 622.05C449.534 623.091 387.208 603.135 339.593 556.857Q337.45 554.774 335.359 552.639Q333.268 550.503 331.231 548.317Q329.194 546.13 327.212 543.893Q325.229 541.657 323.303 539.372Q321.377 537.087 319.508 534.755Q317.639 532.423 315.828 530.045Q314.017 527.668 312.266 525.246Q310.515 522.824 308.824 520.359Q307.134 517.895 305.505 515.389Q303.876 512.884 302.31 510.338Q300.743 507.793 299.241 505.21Q297.738 502.627 296.3 500.007Q294.862 497.387 293.489 494.732Q292.116 492.078 290.81 489.39Q289.503 486.702 288.263 483.983Q287.024 481.263 285.852 478.514Q284.681 475.764 283.577 472.987Q282.474 470.209 281.44 467.405Q280.406 464.601 279.442 461.772Q278.478 458.944 277.585 456.092Q276.691 453.24 275.868 450.367Q275.046 447.494 274.294 444.601Q273.543 441.708 272.864 438.798Q272.185 435.888 271.578 432.961Q270.971 430.035 270.437 427.095Q269.903 424.154 269.442 421.201Q268.981 418.248 268.593 415.285Q268.205 412.322 267.891 409.35Q267.577 406.378 267.337 403.399Q267.097 400.42 266.93 397.436Q266.764 394.452 266.672 391.465Q266.579 388.478 266.561 385.489C266.007 338.387 278.769 289.036 303.36 248.711C308.158 240.843 313.512 232.411 319.949 225.809C328.527 231.74 339.458 238.269 345.44 246.941Z"/>
	<path fill="#0E3872" d="M615.902 574.124C617.293 574.262 618.623 574.546 619.821 575.29C621.818 576.53 623.311 578.377 623.784 580.711Q623.88 581.187 623.928 581.671Q623.976 582.155 623.975 582.641Q623.974 583.127 623.925 583.61Q623.876 584.094 623.779 584.57Q623.682 585.046 623.538 585.51Q623.394 585.974 623.204 586.422Q623.015 586.87 622.781 587.296Q622.548 587.722 622.273 588.123C620.486 590.761 618.472 591.373 615.452 591.918C614.129 591.709 612.726 591.446 611.522 590.825C609.27 589.663 607.477 587.457 606.923 584.975C606.41 582.678 606.954 580.342 608.266 578.411C610.128 575.672 612.784 574.731 615.902 574.124Z"/>
	<path fill="#FEFEFE" d="M497.821 184.716C497.918 184.705 498.015 184.69 498.112 184.683C509.145 183.916 520.671 184.922 531.611 186.459C571.98 192.13 607.489 208.959 638.228 235.537C676.412 268.551 701.123 318.754 704.664 369.107Q704.852 371.566 704.98 374.029Q705.108 376.492 705.176 378.957Q705.244 381.423 705.251 383.889Q705.258 386.355 705.204 388.821Q705.151 391.287 705.037 393.75Q704.923 396.214 704.749 398.674Q704.575 401.134 704.34 403.589Q704.106 406.044 703.811 408.493Q703.516 410.941 703.162 413.382Q702.807 415.823 702.393 418.254Q701.978 420.685 701.504 423.105Q701.03 425.526 700.497 427.934Q699.964 430.342 699.372 432.736Q698.78 435.13 698.13 437.509Q697.479 439.888 696.77 442.25Q696.062 444.612 695.295 446.957Q694.529 449.301 693.705 451.625Q692.881 453.95 692.001 456.254Q691.12 458.558 690.184 460.839Q689.247 463.12 688.255 465.378Q687.262 467.636 686.215 469.869Q685.167 472.102 684.065 474.308Q682.963 476.514 681.808 478.693Q680.652 480.872 679.443 483.022Q678.234 485.171 676.973 487.291Q675.712 489.41 674.4 491.498Q673.087 493.586 671.723 495.641Q670.36 497.696 668.946 499.717Q667.533 501.738 666.07 503.724Q664.607 505.71 663.096 507.659Q661.585 509.608 660.027 511.52Q658.469 513.431 656.864 515.304Q655.493 516.87 654.09 518.407Q652.688 519.945 651.254 521.453Q649.82 522.962 648.356 524.441Q646.891 525.92 645.397 527.369Q643.903 528.818 642.379 530.235Q640.856 531.653 639.304 533.04Q637.752 534.427 636.172 535.781Q634.592 537.136 632.984 538.458Q631.377 539.78 629.743 541.069Q628.109 542.358 626.449 543.614Q624.789 544.869 623.104 546.09Q621.418 547.311 619.709 548.498Q617.999 549.685 616.265 550.836Q614.531 551.987 612.774 553.103Q611.018 554.219 609.238 555.299Q607.459 556.379 605.658 557.422Q603.857 558.465 602.035 559.471Q600.214 560.477 598.372 561.446Q596.53 562.415 594.668 563.346Q592.807 564.277 590.927 565.17Q589.047 566.063 587.149 566.917Q585.251 567.771 583.336 568.587Q581.421 569.402 579.49 570.178Q577.559 570.954 575.613 571.691Q573.666 572.427 571.705 573.124Q569.744 573.82 567.769 574.477Q565.794 575.133 563.806 575.749Q561.818 576.365 559.818 576.941Q557.818 577.516 555.806 578.05Q553.795 578.585 551.773 579.078Q549.751 579.571 547.719 580.023Q545.687 580.475 543.647 580.885C533.624 582.863 523.566 583.773 513.384 584.459C462.212 585.31 414.369 569.786 375.179 536.342Q373.281 534.742 371.423 533.095Q369.565 531.448 367.749 529.756Q365.933 528.063 364.159 526.326Q362.385 524.589 360.655 522.809Q358.925 521.029 357.239 519.206Q355.554 517.383 353.914 515.519Q352.274 513.655 350.681 511.751Q349.088 509.847 347.543 507.904Q345.998 505.96 344.501 503.98Q343.004 501.999 341.558 499.982Q340.111 497.964 338.714 495.912Q337.318 493.859 335.972 491.772Q334.627 489.686 333.334 487.566Q332.041 485.447 330.801 483.296Q329.561 481.146 328.375 478.965Q327.189 476.784 326.057 474.574Q324.925 472.365 323.849 470.128Q322.772 467.89 321.751 465.627Q320.731 463.364 319.766 461.077Q318.802 458.789 317.895 456.478Q316.987 454.167 316.138 451.835Q315.288 449.502 314.496 447.149Q313.705 444.796 312.972 442.424Q312.239 440.052 311.565 437.662Q310.891 435.273 310.277 432.868Q309.662 430.462 309.108 428.042Q308.553 425.622 308.059 423.19Q307.565 420.757 307.131 418.312Q306.697 415.868 306.324 413.413Q305.951 410.959 305.639 408.496Q305.327 406.033 305.076 403.563Q304.825 401.093 304.636 398.618Q304.464 396.188 304.351 393.755Q304.238 391.322 304.185 388.887Q304.131 386.452 304.136 384.016Q304.141 381.58 304.205 379.145Q304.269 376.71 304.392 374.277Q304.515 371.845 304.696 369.416Q304.878 366.987 305.119 364.563Q305.359 362.139 305.658 359.722Q305.958 357.304 306.315 354.895Q306.673 352.485 307.089 350.085Q307.504 347.685 307.978 345.296Q308.452 342.907 308.983 340.53Q309.515 338.153 310.104 335.789Q310.693 333.426 311.339 331.077Q311.985 328.729 312.687 326.396Q313.39 324.064 314.149 321.749Q314.908 319.435 315.722 317.139Q316.537 314.844 317.407 312.569Q318.277 310.294 319.202 308.04Q320.127 305.787 321.106 303.557Q322.085 301.326 323.118 299.12Q324.151 296.914 325.237 294.734Q326.323 292.554 327.461 290.4Q328.599 288.247 329.79 286.122Q330.98 283.997 332.221 281.901Q333.463 279.805 334.754 277.74Q336.046 275.675 337.387 273.642Q338.728 271.608 340.119 269.608Q341.509 267.608 342.947 265.642Q344.385 263.676 345.87 261.746Q347.356 259.815 348.887 257.921Q350.419 256.027 351.996 254.171Q353.312 252.642 354.658 251.14Q356.004 249.637 357.38 248.163Q358.756 246.688 360.162 245.241Q361.568 243.794 363.003 242.377Q364.437 240.959 365.9 239.57Q367.364 238.181 368.854 236.822Q370.345 235.464 371.863 234.135Q373.381 232.807 374.926 231.509Q376.47 230.212 378.041 228.946Q379.611 227.68 381.207 226.446Q382.803 225.212 384.423 224.011Q386.043 222.809 387.688 221.641Q389.332 220.472 391 219.337Q392.667 218.202 394.357 217.101Q396.047 216 397.76 214.934Q399.472 213.867 401.205 212.835Q402.938 211.803 404.692 210.807Q406.446 209.81 408.219 208.849Q409.993 207.888 411.785 206.963Q413.578 206.038 415.389 205.15Q417.2 204.261 419.029 203.41Q420.857 202.558 422.703 201.743Q424.548 200.929 426.409 200.152Q428.271 199.374 430.148 198.635Q432.024 197.896 433.916 197.195Q435.807 196.493 437.712 195.83Q439.617 195.168 441.536 194.543Q443.454 193.919 445.384 193.334Q447.314 192.748 449.256 192.202Q451.198 191.656 453.151 191.149Q455.103 190.642 457.065 190.175Q459.028 189.708 460.999 189.28C473.148 186.709 485.456 185.611 497.821 184.716Z"/>
	<path fill="#C6E5F3" d="M374.388 498.161C373.601 497.46 372.869 496.762 372.171 495.971C343.8 463.827 328.571 417.8 331.043 375.148Q331.161 373.029 331.331 370.914Q331.501 368.799 331.723 366.689Q331.945 364.578 332.218 362.474Q332.491 360.37 332.816 358.273Q333.141 356.176 333.517 354.088Q333.893 351.999 334.32 349.921Q334.747 347.842 335.224 345.775Q335.702 343.707 336.23 341.652Q336.758 339.597 337.337 337.555Q337.915 335.513 338.543 333.487Q339.171 331.46 339.848 329.449Q340.526 327.438 341.252 325.444Q341.979 323.45 342.754 321.475Q343.529 319.5 344.352 317.544Q345.175 315.588 346.046 313.653Q346.917 311.718 347.834 309.805Q348.752 307.891 349.717 306.001Q350.681 304.111 351.691 302.245Q352.702 300.379 353.757 298.539Q354.813 296.698 355.914 294.884Q357.014 293.069 358.158 291.282Q359.303 289.495 360.491 287.737Q361.679 285.979 362.909 284.25Q364.14 282.521 365.412 280.823Q366.685 279.125 367.998 277.459Q369.312 275.792 370.666 274.159Q372.02 272.525 373.414 270.925Q374.807 269.324 376.24 267.759Q377.672 266.193 379.142 264.663Q380.612 263.133 382.12 261.639Q383.627 260.146 385.17 258.689Q386.714 257.233 388.292 255.815Q389.899 254.396 391.54 253.016Q393.181 251.636 394.855 250.297Q396.53 248.957 398.236 247.66Q399.943 246.362 401.68 245.106Q403.418 243.85 405.186 242.637Q406.954 241.424 408.751 240.254Q410.548 239.085 412.373 237.96Q414.198 236.835 416.05 235.754Q417.902 234.674 419.78 233.639Q421.658 232.605 423.56 231.616Q425.463 230.628 427.389 229.686Q429.315 228.744 431.264 227.85Q433.213 226.955 435.182 226.109Q437.152 225.262 439.142 224.464Q441.132 223.666 443.141 222.917Q445.15 222.168 447.177 221.468Q449.203 220.768 451.246 220.118Q453.289 219.467 455.348 218.867Q457.406 218.267 459.478 217.718Q461.551 217.168 463.636 216.669Q465.721 216.17 467.818 215.723Q469.915 215.275 472.022 214.879Q474.129 214.482 476.245 214.138Q478.361 213.793 480.485 213.5Q482.609 213.207 484.739 212.966Q486.87 212.725 489.006 212.536Q491.141 212.347 493.281 212.211Q495.421 212.074 497.563 211.99Q499.705 211.906 501.849 211.874Q503.993 211.842 506.137 211.862Q508.281 211.883 510.424 211.956Q512.567 212.029 514.707 212.154Q516.875 212.294 519.039 212.487Q521.203 212.68 523.362 212.927Q525.521 213.173 527.673 213.472Q529.825 213.771 531.969 214.123Q534.113 214.474 536.248 214.879Q538.383 215.283 540.507 215.739Q542.632 216.196 544.744 216.704Q546.856 217.213 548.956 217.773Q551.055 218.333 553.14 218.944Q555.225 219.556 557.294 220.218Q559.364 220.88 561.416 221.593Q563.469 222.306 565.503 223.069Q567.537 223.832 569.552 224.645Q571.567 225.458 573.562 226.32Q575.556 227.182 577.529 228.092Q579.502 229.003 581.452 229.961Q583.402 230.92 585.327 231.926Q587.253 232.933 589.154 233.986Q591.054 235.039 592.928 236.138Q594.802 237.238 596.649 238.383Q598.495 239.528 600.313 240.718Q602.131 241.908 603.919 243.142Q605.707 244.376 607.465 245.654Q609.222 246.932 610.948 248.252Q612.673 249.573 614.366 250.935Q616.058 252.297 617.717 253.701Q619.376 255.104 620.999 256.548Q622.623 257.992 624.211 259.475Q625.799 260.958 627.35 262.48Q628.901 264.001 630.414 265.561Q631.927 267.12 633.402 268.716Q634.876 270.311 636.311 271.943C665.281 304.879 680.738 351.995 678.025 395.54C676.245 424.121 667.792 448.827 653.551 473.546C648.75 481.879 642.738 491.252 635.474 497.663C622.91 514.574 594.167 534.924 574.508 542.622C563.037 547.864 551.29 551.405 539.039 554.234C517.258 558.109 496 558.503 474.109 555.013C462.372 553.333 449.281 549.305 438.522 544.381C418.189 535.109 399.222 523.744 383.116 508.059C380.085 505.108 376.453 501.837 374.388 498.161Z"/>
	<path fill="#E24457" d="M600.302 276.736C603.11 276.55 606.121 277.146 608.257 279.091C609.907 280.594 610.869 282.835 610.881 285.061C610.898 288.318 608.464 291.395 608.272 294.762C607.728 304.312 610.973 329.361 604.794 335.819Q604.44 336.188 604.051 336.521Q603.662 336.853 603.242 337.145Q602.821 337.437 602.374 337.686Q601.927 337.935 601.457 338.138Q600.988 338.341 600.5 338.496Q600.012 338.652 599.512 338.758Q599.011 338.864 598.502 338.92Q597.994 338.975 597.482 338.98C594.346 339.035 591.517 337.896 589.335 335.644C584.977 331.147 585.571 324.948 585.565 319.172C579.43 325.031 570.471 336.077 563.471 339.975C562.076 340.752 560.619 340.917 559.054 341.065C555.524 340.474 551.99 339.214 549.292 336.749C547.466 335.08 546.56 332.749 546.449 330.308C546.335 327.818 547.029 325.341 548.27 323.192C552.023 316.693 562.648 307.321 568.171 301.483Q562.189 301.551 556.208 301.424C555.218 300.715 554.197 300.008 553.277 299.207C550.458 296.753 548.718 294.01 548.439 290.235C548.208 287.101 548.781 284.106 550.934 281.713C552.821 279.614 555.484 278.29 558.201 277.64C563.425 276.388 569.518 276.933 574.865 276.928C583.346 276.92 591.824 276.992 600.302 276.736Z"/>
	<path fill="#05A5B1" d="M474.269 466.041C488.771 478.973 507.148 484.803 526.515 483.614C530.746 483.354 534.804 482.716 538.914 481.693L539.039 554.234C517.258 558.109 496 558.503 474.109 555.013L474.269 466.041Z"/>
	<path fill="#FDA927" d="M574.372 415.975L635.426 415.918L635.474 497.663C622.91 514.574 594.167 534.924 574.508 542.622C573.837 528.744 574.383 514.557 574.365 500.648L574.372 415.975Z"/>
	<path fill="#E24457" d="M374.401 415.984L438.603 415.973L438.522 544.381C418.189 535.109 399.222 523.744 383.116 508.059C380.085 505.108 376.453 501.837 374.388 498.161C374.386 470.796 373.892 443.339 374.401 415.984Z"/>
	<path fill="#4ACB90" d="M474.28 369.536L538.869 369.578C538.505 406.938 538.841 444.331 538.914 481.693C534.804 482.716 530.746 483.354 526.515 483.614C507.148 484.803 488.771 478.973 474.269 466.041C474.429 433.903 474.935 401.662 474.28 369.536Z"/>
</svg>
